<svg width="7.414062" height="10.292969" viewBox="0 0 7.41406 10.293" fill="none" xmlns="http://www.w3.org/2000/svg" xmlns:xlink="http://www.w3.org/1999/xlink">
	<desc>
			Created with Pixso.
	</desc>
	<defs/>
	<path id="icon" d="M3.70703 2.70703L6.20703 0.207031C6.4834 -0.0690918 6.93115 -0.0690918 7.20703 0.207031C7.4834 0.483154 7.4834 0.930908 7.20703 1.20703L4.41406 4C4.02393 4.39062 3.39062 4.39062 3 4L0.207031 1.20703C-0.0688477 0.930908 -0.0688477 0.483154 0.207031 0.207031C0.483398 -0.0690918 0.931152 -0.0690918 1.20703 0.207031L3.70703 2.70703ZM6.20703 6.20703L3.70703 8.70703L1.20703 6.20703C0.931152 5.93091 0.483398 5.93091 0.207031 6.20703C-0.0688477 6.48315 -0.0688477 6.93091 0.207031 7.20703L3 10C3.39062 10.3906 4.02393 10.3906 4.41406 10L7.20703 7.20703C7.4834 6.93091 7.4834 6.48315 7.20703 6.20703C6.93115 5.93091 6.4834 5.93091 6.20703 6.20703Z" clip-rule="evenodd" fill="#41F6D7" fill-opacity="1.000000" fill-rule="evenodd"/>
</svg>
